<?xml version="1.0" standalone="no"?><!DOCTYPE svg PUBLIC "-//W3C//DTD SVG 1.1//EN" "http://www.w3.org/Graphics/SVG/1.1/DTD/svg11.dtd"><svg t="1752936706572" class="icon" viewBox="0 0 1024 1024" version="1.1" xmlns="http://www.w3.org/2000/svg" p-id="14899" xmlns:xlink="http://www.w3.org/1999/xlink" width="200" height="200"><path d="M384.768 174.08c10.5472 0 21.2992 7.3216 32.256 21.4016l0.512 0.9728 0.3072 0.7168 0.4608 0.6656c23.04 34.4064 62.976 96.1024 84.736 128.512a78.08 78.08 0 0 0 47.0016 34.4064l128 35.4304 1.6384 0.4608h0.4096c17.1008 6.8608 27.2384 15.36 30.1568 24.6784 3.072 10.7008-0.4096 23.5008-11.776 39.2192l-93.952 125.2864a80.128 80.128 0 0 0-15.7184 53.1968l7.2704 140.9536v0.4096c-0.8704 19.9168-5.12 33.024-13.3632 39.5264a24.0128 24.0128 0 0 1-15.36 5.12 68.7104 68.7104 0 0 1-20.48-3.9424l-143.1552-53.4016a73.8304 73.8304 0 0 0-27.1872-5.12 86.1184 86.1184 0 0 0-31.9488 6.1952L221.184 819.2a112.9472 112.9472 0 0 1-31.744 7.2704 14.5408 14.5408 0 0 1-12.3904-5.12c-5.12-6.6048-7.3728-20.48-5.5296-40.96l4.0448-160.8704a76.8 76.8 0 0 0-17.5104-53.248c-12.5952-14.6944-27.136-34.4576-36.5056-46.08-15.6672-19.6096-31.4368-38.4-46.08-57.9584v-0.4096l-1.8432-3.0208c-11.5712-18.7392-15.36-32.5632-11.4176-43.6224 3.584-8.6016 13.312-16.4352 29.6448-21.6064l146.2784-44.9024a86.5792 86.5792 0 0 0 45.5168-35.4816l70.9632-116.9408c9.984-14.8992 19.712-22.1696 30.1568-22.1696z m0-56.32C362.752 117.76 332.8 127.1808 307.2 166.2976L235.52 284.2624a32.1536 32.1536 0 0 1-14.8992 10.9568l-146.7904 44.6976c-34.304 10.5984-57.1904 30.3616-65.7408 57.2416-9.3696 25.6-4.0448 56.32 16.0256 89.2928a15.36 15.36 0 0 0 2.2016 3.9936 26.6752 26.6752 0 0 0 1.9968 2.304c27.6992 35.84 56.32 70.7584 84.1216 106.6496 2.5088 6.8608 4.4032 13.1072 6.8608 19.968l-4.1472 156.5184c-2.2528 35.1744 4.0448 62.464 19.8144 80.5888A73.1136 73.1136 0 0 0 190.3104 880.64a110.0288 110.0288 0 0 0 48.9984-12.5952L363.52 818.0736a29.3376 29.3376 0 0 1 9.1648-1.4848 25.6 25.6 0 0 1 9.0112 1.5872l144.3328 53.3504 2.048 0.768h1.28a121.7024 121.7024 0 0 0 36.5056 6.2464 84.3776 84.3776 0 0 0 49.0496-15.616c18.8416-13.8752 34.816-39.0656 36.5568-83.0976v-1.2288l-8.3968-143.36a28.3136 28.3136 0 0 1 5.12-16.128l94.0032-127.3856c22.2208-30.3616 29.1328-60.5696 20.48-88.3712-8.3968-28.7744-31.1296-49.6128-67.328-62.4128l-1.28-0.4608a17.152 17.152 0 0 0-3.584-1.1264L563.2 305.4592a32.1024 32.1024 0 0 1-14.592-11.0592c-27.8528-42.2912-55.9616-85.9648-85.0944-129.6896l-0.6656-1.3824-0.512-1.024-0.6656-0.8704C440.32 133.12 412.7232 117.76 384.768 117.76z m0 0" p-id="14900"></path><path d="M681.2672 212.0704m28.6208 0l279.6032 0q28.6208 0 28.6208 28.6208l0 5.0176q0 28.6208-28.6208 28.6208l-279.6032 0q-28.6208 0-28.6208-28.6208l0-5.0176q0-28.6208 28.6208-28.6208Z" p-id="14901"></path><path d="M767.0784 719.9744m28.6208 0l191.1808 0q28.6208 0 28.6208 28.6208l0 0q0 28.6208-28.6208 28.6208l-191.1808 0q-28.6208 0-28.6208-28.6208l0 0q0-28.6208 28.6208-28.6208Z" p-id="14902"></path><path d="M862.464 467.968m28.6208 0l97.536 0q28.6208 0 28.6208 28.6208l0 5.1712q0 28.6208-28.6208 28.6208l-97.536 0q-28.6208 0-28.6208-28.6208l0-5.1712q0-28.6208 28.6208-28.6208Z" p-id="14903"></path></svg>