<?xml version="1.0" standalone="no"?><!DOCTYPE svg PUBLIC "-//W3C//DTD SVG 1.1//EN" "http://www.w3.org/Graphics/SVG/1.1/DTD/svg11.dtd"><svg t="1745945909638" class="icon" viewBox="0 0 1024 1024" version="1.1" xmlns="http://www.w3.org/2000/svg" p-id="23962" xmlns:xlink="http://www.w3.org/1999/xlink" width="200" height="200"><path d="M554.666667 85.333333v102.570667l6.485333-1.066667 11.733333-2.133333c14.037333-2.517333 29.781333-5.376 45.44-7.04 43.733333-4.736 91.861333-1.28 148.992 30.336C879.872 270.293333 938.666667 388.266667 938.666667 533.333333c0 182.613333-115.626667 354.133333-264.064 402.730667-44.373333 14.506667-76.16 6.656-102.570667-3.072l-11.605333-4.352c-17.749333-6.784-29.653333-11.306667-48.426667-11.306667-18.773333 0-30.634667 4.522667-48.384 11.306667-3.584 1.365333-7.424 2.858667-11.605333 4.394667-26.453333 9.728-58.282667 17.621333-102.698667 2.986666C201.386667 887.338667 85.333333 716.032 85.333333 533.333333c0-145.066667 58.794667-262.826667 171.306667-325.290666 57.173333-31.744 105.301333-35.2 149.077333-30.464 15.616 1.706667 31.402667 4.565333 45.397334 7.125333l11.733333 2.133333 6.485333 1.066667V85.333333h85.333334z m-85.333334 188.885334c-7.338667-1.024-14.378667-2.133333-21.077333-3.328l-14.506667-2.602667a522.368 522.368 0 0 0-37.248-5.845333c-29.866667-3.242667-59.605333-1.365333-98.474666 20.181333C218.453333 326.826667 170.666667 412.032 170.666667 533.333333c0 151.765333 97.621333 286.208 205.354666 321.621334 19.541333 6.442667 30.336 3.925333 46.506667-2.005334l8.106667-3.114666c18.304-7.168 45.568-17.834667 81.365333-17.834667s63.061333 10.666667 81.322667 17.792l8.106666 3.114667c16.213333 5.973333 27.050667 8.448 46.634667 2.048C755.968 819.626667 853.333333 685.141333 853.333333 533.333333c0-121.344-47.786667-206.634667-127.36-250.666666-38.826667-21.546667-68.608-23.424-98.474666-20.181334-12.373333 1.322667-23.978667 3.413333-37.290667 5.845334-4.608 0.853333-9.386667 1.706667-14.506667 2.56-6.698667 1.152-13.696 2.304-21.034666 3.328v59.818666c7.424-2.602667 14.549333-5.930667 21.333333-9.813333l36.906667-21.333333 42.709333 73.813333-36.949333 21.376A212.565333 212.565333 0 0 1 512 426.666667c-38.826667 0-75.264-10.410667-106.666667-28.586667l-36.949333-21.333333 42.709333-73.856 36.949334 21.333333c6.741333 3.882667 13.866667 7.210667 21.290666 9.813333V274.218667z" p-id="23963"></path></svg>