<?xml version="1.0" standalone="no"?><!DOCTYPE svg PUBLIC "-//W3C//DTD SVG 1.1//EN" "http://www.w3.org/Graphics/SVG/1.1/DTD/svg11.dtd"><svg t="1752935395666" class="icon" viewBox="0 0 1024 1024" version="1.1" xmlns="http://www.w3.org/2000/svg" p-id="10627" xmlns:xlink="http://www.w3.org/1999/xlink" width="200" height="200"><path d="M825.3 758.8l-526.5 4-27.8-509h514.2z" fill="#FFFFFF" p-id="10628"></path><path d="M298.8 777.8c-8 0-14.5-6.2-15-14.2l-27.8-509c-0.2-4.1 1.3-8.1 4.1-11.1s6.8-4.7 10.9-4.7h514.2c7.8 0 14.3 6 15 13.8l40.1 505c0.3 4.2-1.1 8.3-3.9 11.3-2.8 3.1-6.8 4.8-10.9 4.9L299 777.9c-0.1-0.1-0.2-0.1-0.2-0.1z m-12-509L313 747.7l496.1-3.8-37.7-475.1H286.8z" fill="#333333" p-id="10629"></path><path d="M769.7 796l-527.7 0.3-0.1-508.9h507.3z" fill="#FFFFFF" p-id="10630"></path><path d="M242 811.3c-4 0-7.8-1.6-10.6-4.4-2.8-2.8-4.4-6.6-4.4-10.6l-0.1-508.9c0-4 1.6-7.8 4.4-10.6 2.8-2.8 6.6-4.4 10.6-4.4h507.2c8 0 14.7 6.4 15 14.4l20.5 508.6c0.2 4.1-1.3 8-4.2 11-2.8 2.9-6.7 4.6-10.8 4.6l-527.6 0.3z m14.9-508.9l0.1 478.9 497.1-0.3-19.3-478.7H256.9z" fill="#333333" p-id="10631"></path><path d="M198.7 321.3h512.2v512.2H198.7z" fill="#FFFFFF" p-id="10632"></path><path d="M710.9 848.6H198.7c-8.3 0-15-6.7-15-15V321.3c0-8.3 6.7-15 15-15h512.2c8.3 0 15 6.7 15 15v512.2c0 8.4-6.7 15.1-15 15.1z m-497.2-30h482.2V336.3H213.7v482.3z" fill="#333333" p-id="10633"></path><path d="M317 413.7c-65.7 0-119.1-53.4-119.1-119.1S251.3 175.4 317 175.4c41.4 0 79.1 21 101.1 56.1 4.4 7 2.3 16.3-4.8 20.7-7 4.4-16.3 2.3-20.7-4.8-16.4-26.3-44.7-42-75.6-42-49.1 0-89.1 40-89.1 89.1s40 89.1 89.1 89.1c8.3 0 15 6.7 15 15s-6.7 15.1-15 15.1z" fill="#333333" p-id="10634"></path><path d="M309.4 449.2c-27.9 0-50.5-22.7-50.5-50.5 0-27.9 22.7-50.5 50.5-50.5s50.5 22.7 50.5 50.5-22.7 50.5-50.5 50.5z m0-71.1c-11.3 0-20.5 9.2-20.5 20.5s9.2 20.5 20.5 20.5 20.5-9.2 20.5-20.5-9.2-20.5-20.5-20.5z" fill="#333333" p-id="10635"></path><path d="M511.3 380.9h133.4V689H511.3z" fill="#FFFFFF" p-id="10636"></path><path d="M644.7 704H511.3c-8.3 0-15-6.7-15-15V380.9c0-8.3 6.7-15 15-15h133.4c8.3 0 15 6.7 15 15V689c0 8.3-6.7 15-15 15z m-118.4-30h103.4V395.9H526.3V674z" fill="#333333" p-id="10637"></path></svg>