<?xml version="1.0" standalone="no"?><!DOCTYPE svg PUBLIC "-//W3C//DTD SVG 1.1//EN" "http://www.w3.org/Graphics/SVG/1.1/DTD/svg11.dtd"><svg t="1766023855444" class="icon" viewBox="0 0 1024 1024" version="1.1" xmlns="http://www.w3.org/2000/svg" p-id="6924" xmlns:xlink="http://www.w3.org/1999/xlink" width="200" height="200"><path d="M225.42 413.08c-54.44 0-98.58 44.13-98.58 98.58s44.13 98.58 98.58 98.58c54.44 0 98.58-44.13 98.58-98.58s-44.13-98.58-98.58-98.58z m0 144.06c-25.12 0-45.48-20.36-45.48-45.48s20.36-45.48 45.48-45.48c25.12 0 45.48 20.36 45.48 45.48s-20.36 45.48-45.48 45.48zM516.67 413.08c-54.44 0-98.58 44.13-98.58 98.58s44.13 98.58 98.58 98.58c54.44 0 98.58-44.13 98.58-98.58s-44.14-98.58-98.58-98.58z m0 144.06c-25.12 0-45.48-20.36-45.48-45.48s20.36-45.48 45.48-45.48c25.12 0 45.48 20.36 45.48 45.48s-20.37 45.48-45.48 45.48zM789.95 457.54c-28.73 0-54.11 24.76-54.11 57.94 0 8.28 2.84 21.52 10.76 32 6.96 9.21 19.2 18.27 43.35 18.27h2.62l2.57 0.51c4.18 0.84 30.57 0.75 53.37-33.5l44.2 29.42c-33.23 49.92-78.81 60.55-105.09 56.65-39.13-0.63-66.46-16.97-83.36-39.32-16.27-21.53-21.5-46.7-21.5-64.02 0-60.15 46.85-111.04 107.2-111.04s107.2 50.89 107.2 111.04h-53.1c0-33.19-25.38-57.95-54.11-57.95z" fill="#ffffff" p-id="6925"></path></svg>