<?xml version="1.0" standalone="no"?><!DOCTYPE svg PUBLIC "-//W3C//DTD SVG 1.1//EN" "http://www.w3.org/Graphics/SVG/1.1/DTD/svg11.dtd"><svg t="1765378132713" class="icon" viewBox="0 0 1024 1024" version="1.1" xmlns="http://www.w3.org/2000/svg" p-id="1415" xmlns:xlink="http://www.w3.org/1999/xlink" width="200" height="200"><path d="M73.179426 85.326223C73.179426 41.931744 125.691621 20.136989 156.409061 50.854429l292.54705 292.547049A48.757842 48.757842 0 0 1 463.242158 377.873272v292.54705a48.757842 48.757842 0 0 1-14.286047 34.471794l-292.54705 292.54705c-30.71744 30.71744-83.229636 8.971443-83.229635-34.471794v-877.641149z m97.515683 117.701429v642.23829l195.031366-195.031366V398.059019l-195.031366-195.031367z" fill="#000000" p-id="1416"></path><path d="M365.726475 73.136762C365.726475 29.742283 418.238671 7.947528 448.956111 38.664968l451.010035 451.010035a48.757842 48.757842 0 0 1 0 68.943588l-451.010035 451.010035C418.238671 1040.346066 365.726475 1018.600069 365.726475 975.156832V73.136762z m97.515683 784.318641l333.308606-333.308606L463.242158 190.838192v666.617211z" fill="#000000" p-id="1417"></path></svg>