<?xml version="1.0" standalone="no"?><!DOCTYPE svg PUBLIC "-//W3C//DTD SVG 1.1//EN" "http://www.w3.org/Graphics/SVG/1.1/DTD/svg11.dtd"><svg t="1765378161755" class="icon" viewBox="0 0 1185 1024" version="1.1" xmlns="http://www.w3.org/2000/svg" p-id="1877" xmlns:xlink="http://www.w3.org/1999/xlink" width="231.4453125" height="200"><path d="M0 53.894737A53.894737 53.894737 0 0 1 81.596632 7.706947l269.473684 161.684211a53.894737 53.894737 0 0 1 0 92.375579l-269.473684 161.68421A53.894737 53.894737 0 0 1 0 377.263158V53.894737z m107.789474 228.190316L218.597053 215.578947 107.789474 149.072842v133.012211zM53.894737 646.736842h1077.894737a53.894737 53.894737 0 0 0 0-107.789474H53.894737a53.894737 53.894737 0 1 0 0 107.789474zM53.894737 1024h1077.894737a53.894737 53.894737 0 0 0 0-107.789474H53.894737a53.894737 53.894737 0 0 0 0 107.789474zM485.052632 269.473684h646.736842a53.894737 53.894737 0 0 0 0-107.789473H485.052632a53.894737 53.894737 0 1 0 0 107.789473z" fill="#000000" p-id="1878"></path></svg>