<?xml version="1.0" standalone="no"?><!DOCTYPE svg PUBLIC "-//W3C//DTD SVG 1.1//EN" "http://www.w3.org/Graphics/SVG/1.1/DTD/svg11.dtd"><svg t="1765378153304" class="icon" viewBox="0 0 1024 1024" version="1.1" xmlns="http://www.w3.org/2000/svg" p-id="1570" xmlns:xlink="http://www.w3.org/1999/xlink" width="200" height="200"><path d="M867.55437 50.854429C898.271811 20.136989 950.784006 41.882986 950.784006 85.326223v877.641149c0 43.394479-52.512195 65.189234-83.229636 34.471794l-292.547049-292.54705A48.757842 48.757842 0 0 1 560.721273 670.420322v-292.54705a48.757842 48.757842 0 0 1 14.286048-34.471794l292.547049-292.547049zM853.268323 203.027652l-195.031367 195.031367v252.175557l195.031367 195.031366V203.027652z" fill="#000000" p-id="1571"></path><path d="M575.007321 38.664968C605.724761 7.947528 658.236956 29.693526 658.236956 73.136762V975.156832c0 43.394479-52.512195 65.189234-83.229635 34.471794l-451.010035-451.010035a48.757842 48.757842 0 0 1 0-68.943588l451.010035-451.010035zM227.412668 524.146797L560.721273 857.455403V190.838192L227.412668 524.146797z" fill="#000000" p-id="1572"></path></svg>